<?xml version="1.0" encoding="utf-8"?>
<!-- Generator: Adobe Illustrator 19.0.1, SVG Export Plug-In . SVG Version: 6.00 Build 0)  -->
<svg version="1.1" id="Layer_1" xmlns="http://www.w3.org/2000/svg" xmlns:xlink="http://www.w3.org/1999/xlink" x="0px" y="0px"
	 viewBox="0 0 140 42.6" style="enable-background:new 0 0 140 42.6;" xml:space="preserve">
<g id="XMLID_168_">
	<polygon id="XMLID_243_" style="fill:#161512;" points="11.7,31 11.7,12.8 23.1,12.8 23.1,16.1 15.2,16.1 15.2,20.3 22.3,20.3 
		22.3,23.4 15.2,23.4 15.2,27.6 23.1,27.6 23.1,31 	"/>
	<polygon id="XMLID_232_" style="fill:#161512;" points="26.6,26 26.6,12.9 30.2,12.9 30.2,22.7 35.6,22.7 35.6,26 	"/>
	<path id="XMLID_222_" style="fill:#161512;" d="M52.7,28c1.7,0,2.8-0.9,2.8-2.4c0-1.4-0.9-2.4-2.7-2.4h-3.6V28H52.7z M52.4,20.3
		c1.6,0,2.6-0.9,2.6-2.3c0-1.4-0.9-2.3-2.6-2.3h-3.2v4.6H52.4z M52.9,12.8c3.5,0,5.6,2.1,5.6,4.9c0,1.9-1.1,3.4-2.6,3.9
		c1.8,0.4,3.2,2.1,3.2,4.3c0,3-2.2,5.1-5.6,5.1h-7.7V12.8H52.9z"/>
	<path id="XMLID_221_" style="fill:#161512;" d="M61.2,22.3v-9.6h3.5V22c0,2.4,1.3,3.6,3.4,3.6c2.2,0,3.5-1.3,3.5-3.6v-9.3h3.5v9.6
		c0,4.5-3.1,6.9-7,6.9C64.3,29.1,61.2,26.7,61.2,22.3"/>
	<path id="XMLID_199_" style="fill:#161512;" d="M119.9,27.9c2.7,0,5.5-1.9,5.5-5.9s-2.8-5.9-5.5-5.9c-2.7,0-5.5,1.9-5.5,5.9
		S117.1,27.9,119.9,27.9 M119.9,12.8c4.8,0,9.1,3.5,9.1,9.2c0,5.7-4.3,9.2-9.1,9.2c-4.8,0-9.1-3.5-9.1-9.2
		C110.8,16.3,115.1,12.8,119.9,12.8"/>
	<path id="XMLID_193_" style="fill:#161512;" d="M85.6,15.8c1.8,0,2.9,1,2.9,2.5c0,1.5-1.1,2.5-2.9,2.5h-0.5c-0.2,0-0.4,0-0.6,0
		h-1.8v-5H85.6z M89.7,22.8c1.5-0.9,2.4-2.5,2.4-4.5c0-3.2-2.3-5.6-5.8-5.6h-7.1v15.9h3.6v-4.3h1.8c2.4,0,4.3,1.9,4.3,4.3h3.4
		C92.3,26.3,91.3,24.2,89.7,22.8"/>
	<path id="XMLID_189_" style="fill:#161512;" d="M101.6,15.8c1.8,0,2.9,1,2.9,2.5c0,1.5-1.1,2.5-2.9,2.5h-0.9c-0.1,0-0.1,0-0.2,0
		h-1.8v-5.1H101.6z M105.7,22.8c1.5-0.9,2.4-2.5,2.4-4.5c0-3.2-2.3-5.6-5.8-5.6h-7.1v15.9h3.6v-4.3h1.8c2.4,0,4.3,1.9,4.3,4.3h3.4
		C108.3,26.3,107.3,24.2,105.7,22.8"/>
	<path id="XMLID_175_" style="fill:#161512;" d="M3.5,39.1h133.1V3.5H3.5V39.1z M140,42.6H0V0h140V42.6z"/>
</g>
</svg>
